<svg width="56" height="57" viewBox="0 0 56 57" fill="none" xmlns="http://www.w3.org/2000/svg">
<path d="M21.6076 4.64319C22.7005 2.20131 25.1516 0.5 28 0.5C30.8484 0.5 33.2995 2.20131 34.3924 4.64319C36.5599 3.07494 39.5332 2.8271 42 4.2513C44.4668 5.6755 45.7388 8.37439 45.4644 11.0356C48.1257 10.7611 50.8247 12.0331 52.2489 14.5C53.6731 16.9668 53.4253 19.9402 51.857 22.1077C54.2988 23.2006 56 25.6516 56 28.5C56 31.3484 54.2987 33.7994 51.8569 34.8924C53.4253 37.0599 53.6732 40.0333 52.2489 42.5002C50.8247 44.967 48.1257 46.2391 45.4644 45.9646C45.7388 48.6257 44.4668 51.3245 42 52.7487C39.5332 54.1729 36.5599 53.9251 34.3924 52.3568C33.2995 54.7987 30.8484 56.5 28 56.5C25.1516 56.5 22.7005 54.7987 21.6076 52.3568C19.4401 53.9251 16.4668 54.1729 14 52.7487C11.5332 51.3245 10.2612 48.6256 10.5356 45.9644C7.87432 46.2389 5.17532 44.9668 3.75108 42.5C2.32686 40.0332 2.57474 37.0598 4.14303 34.8923C1.70123 33.7993 0 31.3483 0 28.5C0 25.6516 1.70129 23.2006 4.14316 22.1076C2.57475 19.9401 2.32683 16.9667 3.75108 14.4998C5.17532 12.0329 7.87432 10.7609 10.5356 11.0354C10.2613 8.37425 11.5333 5.67546 14 4.2513C16.4668 2.82709 19.4401 3.07494 21.6076 4.64319ZM28 4C26.067 4 24.5 5.56693 24.5 7.49993C24.5 7.49993 24.5009 7.53823 24.5069 7.60743C24.5137 7.68514 24.5254 7.78949 24.5443 7.92342C24.5824 8.19377 24.6432 8.5388 24.7296 8.96018C24.9024 9.80392 25.1576 10.8566 25.4771 12.0631C26.1151 14.4721 26.9736 17.3604 27.8429 20.1628L28 20.6681L28.1571 20.1628C29.0264 17.3604 29.8849 14.4721 30.5229 12.0631C30.8424 10.8566 31.0976 9.80392 31.2704 8.96018C31.3568 8.5388 31.4176 8.19377 31.4557 7.92342C31.4746 7.78949 31.4863 7.68514 31.4931 7.60743C31.4991 7.53809 31.5 7.5 31.5 7.5C31.5 5.567 29.933 4 28 4ZM7 32C7 32 7.03809 31.9991 7.10743 31.9931C7.18514 31.9863 7.28949 31.9746 7.42342 31.9557C7.69377 31.9176 8.0388 31.8568 8.46018 31.7704C9.30392 31.5976 10.3566 31.3424 11.5631 31.0229C13.9721 30.3849 16.8604 29.5264 19.6628 28.6571L20.1681 28.5L19.6628 28.3429C16.8604 27.4736 13.9721 26.6151 11.5631 25.9771C10.3566 25.6576 9.30392 25.4024 8.46018 25.2296C8.0388 25.1432 7.69377 25.0824 7.42342 25.0443C7.28949 25.0254 7.18514 25.0137 7.10743 25.0069C7.03823 25.0009 6.99941 25 6.99941 25C5.06641 25 3.5 26.567 3.5 28.5C3.5 30.433 5.067 32 7 32ZM31.5 49.5C31.5 49.5 31.4991 49.4619 31.4931 49.3926C31.4863 49.3149 31.4746 49.2105 31.4557 49.0766C31.4176 48.8062 31.3568 48.4612 31.2704 48.0398C31.0976 47.1961 30.8424 46.1434 30.5229 44.9369C29.8849 42.5279 29.0264 39.6396 28.1571 36.8372L28 36.3319L27.8429 36.8372C26.9736 39.6396 26.1151 42.5279 25.4771 44.9369C25.1576 46.1434 24.9024 47.1961 24.7296 48.0398C24.6432 48.4612 24.5824 48.8062 24.5443 49.0766C24.5254 49.2105 24.5137 49.3149 24.5069 49.3926C24.5009 49.4618 24.5 49.5006 24.5 49.5006C24.5 51.4336 26.067 53 28 53C29.933 53 31.5 51.433 31.5 49.5ZM11.5633 42.0311C11.5633 42.0311 11.5958 42.0112 11.6528 41.9713C11.7167 41.9266 11.8013 41.8643 11.9078 41.781C12.1229 41.6128 12.3913 41.3876 12.713 41.1022C13.3573 40.5306 14.1414 39.7832 15.0265 38.9033C16.7937 37.1463 18.8658 34.9587 20.8582 32.8046L21.2172 32.4159L20.701 32.5325C17.8394 33.1809 14.9088 33.8815 12.5036 34.5336C11.299 34.8601 10.2597 35.1654 9.44259 35.4376C9.0345 35.5735 8.70531 35.6934 8.45211 35.7956C8.32667 35.8462 8.23044 35.8882 8.15977 35.9212C8.09731 35.9504 8.06275 35.9692 8.06275 35.9692C6.38872 36.9357 5.81567 39.076 6.78217 40.75C7.74867 42.424 9.88924 42.9976 11.5633 42.0311ZM15.75 49.7176C17.424 50.6841 19.5646 50.1105 20.5311 48.4365C20.5311 48.4365 20.5495 48.4027 20.5788 48.34C20.6118 48.2693 20.6538 48.1731 20.7044 48.0477C20.8066 47.7945 20.9264 47.4653 21.0624 47.0572C21.3345 46.2401 21.6399 45.2008 21.9664 43.9962C22.6184 41.591 23.3191 38.6604 23.9675 35.7988L24.084 35.2826L23.6953 35.6416C21.5413 37.634 19.3536 39.7061 17.5967 41.4733C16.7167 42.3584 15.9694 43.1425 15.3978 43.7867C15.1123 44.1085 14.8872 44.3769 14.719 44.592C14.6357 44.6985 14.5733 44.783 14.5286 44.847C14.4857 44.9083 14.4686 44.937 14.4686 44.937C13.5021 46.6111 14.076 48.7511 15.75 49.7176ZM47.9367 21.0311C49.6108 20.0646 50.1843 17.924 49.2178 16.25C48.2513 14.576 46.1113 14.0021 44.4373 14.9686C44.4373 14.9686 44.4041 14.9888 44.3472 15.0286C44.2833 15.0733 44.1987 15.1357 44.0922 15.219C43.8771 15.3872 43.6087 15.6123 43.287 15.8978C42.6427 16.4694 41.8586 17.2167 40.9735 18.0967C39.2063 19.8536 37.1342 22.0413 35.1418 24.1953L34.7828 24.584L35.299 24.4675C38.1606 23.8191 41.0912 23.1184 43.4964 22.4664C44.701 22.1399 45.7403 21.8345 46.5574 21.5624C46.9655 21.4264 47.2947 21.3066 47.5479 21.2044C47.6733 21.1538 47.7696 21.1118 47.8402 21.0788C47.903 21.0495 47.9367 21.0311 47.9367 21.0311ZM40.25 7.28239C38.576 6.31589 36.4357 6.88894 35.4692 8.56296C35.4692 8.56296 35.4529 8.59216 35.4212 8.65998C35.3882 8.73066 35.3462 8.82689 35.2956 8.95232C35.1934 9.20552 35.0735 9.53471 34.9376 9.94281C34.6654 10.7599 34.3601 11.7992 34.0336 13.0038C33.3815 15.409 32.6809 18.3396 32.0325 21.2012L31.9159 21.7174L32.3046 21.3584C34.4587 19.366 36.6463 17.2939 38.4033 15.5267C39.2832 14.6416 40.0306 13.8575 40.6022 13.2133C40.8876 12.8915 41.1128 12.6231 41.281 12.408C41.3643 12.3015 41.4266 12.217 41.4713 12.153C41.5142 12.0917 41.5311 12.0635 41.5311 12.0635C42.4976 10.3895 41.924 8.24888 40.25 7.28239ZM49 32C50.933 32 52.5 30.433 52.5 28.5C52.5 26.567 50.9336 25 49.0006 25C49.0006 25 48.9671 25.0005 48.8926 25.0069C48.8149 25.0137 48.7105 25.0254 48.5766 25.0443C48.3062 25.0824 47.9612 25.1432 47.5398 25.2296C46.6961 25.4024 45.6434 25.6576 44.4369 25.9771C42.0279 26.6151 39.1396 27.4736 36.3372 28.3429L35.8319 28.5L36.3372 28.6571C39.1396 29.5264 42.0279 30.3849 44.4369 31.0229C45.6434 31.3424 46.6961 31.5976 47.5398 31.7704C47.9612 31.8568 48.3062 31.9176 48.5766 31.9557C48.7105 31.9746 48.8149 31.9863 48.8926 31.9931C48.9619 31.9991 49 32 49 32ZM6.78217 16.2498C5.81567 17.9238 6.38924 20.0644 8.06326 21.0309C8.06326 21.0309 8.09688 21.0492 8.15977 21.0786C8.23044 21.1116 8.32667 21.1536 8.45211 21.2042C8.70531 21.3063 9.0345 21.4262 9.44259 21.5621C10.2597 21.8343 11.299 22.1397 12.5036 22.4662C14.9088 23.1182 17.8394 23.8189 20.701 24.4673L21.2172 24.5838L20.8582 24.1951C18.8658 22.0411 16.7937 19.8534 15.0265 18.0964C14.1414 17.2165 13.3573 16.4691 12.713 15.8976C12.3913 15.6121 12.1229 15.387 11.9078 15.2188C11.8013 15.1354 11.7167 15.0731 11.6528 15.0284C11.5959 14.9886 11.5632 14.9687 11.5632 14.9687C9.88918 14.0022 7.74867 14.5757 6.78217 16.2498ZM14.4689 12.0635C14.4689 12.0635 14.4889 12.0962 14.5287 12.153C14.5734 12.217 14.6357 12.3015 14.719 12.408C14.8872 12.6231 15.1124 12.8915 15.3978 13.2133C15.9694 13.8575 16.7168 14.6416 17.5967 15.5267C19.3537 17.2939 21.5413 19.366 23.6954 21.3584L24.0841 21.7174L23.9675 21.2012C23.3191 18.3396 22.6185 15.409 21.9664 13.0038C21.6399 11.7992 21.3346 10.7599 21.0624 9.9428C20.9265 9.53471 20.8066 9.20552 20.7044 8.95232C20.6538 8.82689 20.6118 8.73065 20.5788 8.65998C20.5495 8.59717 20.5308 8.56296 20.5308 8.56296C19.5643 6.88894 17.424 6.31589 15.75 7.28238C14.076 8.24888 13.5024 10.3894 14.4689 12.0635ZM49.2178 40.7502C50.1843 39.0762 49.6108 36.9356 47.9368 35.9691C47.9368 35.9691 47.903 35.9507 47.8402 35.9214C47.7696 35.8884 47.6733 35.8464 47.5479 35.7958C47.2947 35.6936 46.9655 35.5737 46.5574 35.4378C45.7403 35.1657 44.701 34.8603 43.4964 34.5338C41.0912 33.8818 38.1606 33.1811 35.299 32.5327L34.7828 32.4161L35.1418 32.8049C37.1342 34.9589 39.2063 37.1466 40.9735 38.9035C41.8586 39.7835 42.6427 40.5308 43.287 41.1024C43.6087 41.3879 43.8771 41.613 44.0922 41.7812C44.1987 41.8645 44.2833 41.9269 44.3472 41.9716C44.4038 42.0112 44.4367 42.0313 44.4367 42.0313C46.1108 42.9978 48.2513 42.4242 49.2178 40.7502ZM35.4689 48.4365C36.4354 50.1105 38.576 50.6841 40.25 49.7176C41.924 48.7511 42.4979 46.6111 41.5314 44.937C41.5314 44.937 41.5113 44.904 41.4714 44.847C41.4267 44.783 41.3643 44.6985 41.281 44.592C41.1128 44.3769 40.8877 44.1085 40.6022 43.7867C40.0306 43.1425 39.2833 42.3584 38.4033 41.4733C36.6464 39.7061 34.4587 37.634 32.3047 35.6416L31.916 35.2826L32.0325 35.7988C32.6809 38.6604 33.3816 41.591 34.0336 43.9962C34.3601 45.2008 34.6655 46.2401 34.9376 47.0572C35.0736 47.4653 35.1934 47.7945 35.2956 48.0477C35.3462 48.1731 35.3882 48.2693 35.4212 48.34C35.4507 48.4031 35.4689 48.4365 35.4689 48.4365ZM28 33.75C30.8995 33.75 33.25 31.3995 33.25 28.5C33.25 25.6005 30.8995 23.25 28 23.25C25.1005 23.25 22.75 25.6005 22.75 28.5C22.75 31.3995 25.1005 33.75 28 33.75Z" fill="#DAFF01"/>
</svg>
