<svg width="56" height="57" viewBox="0 0 56 57" fill="none" xmlns="http://www.w3.org/2000/svg">
<path d="M27.9528 56.4998C26.5968 56.4879 25.2445 55.9647 24.2099 54.9301L1.56992 32.2901C-0.523302 30.1969 -0.523308 26.8031 1.56991 24.7099L24.2099 2.06992C26.3031 -0.0233017 29.6969 -0.023308 31.7901 2.06991L54.4301 24.7099C55.4647 25.7445 55.9879 27.0968 55.9998 28.4528C56.0001 28.4843 56.0001 28.5157 55.9998 28.5472C55.9879 29.9032 55.4647 31.2555 54.4301 32.2901L31.7901 54.9301C30.7555 55.9647 29.4032 56.4879 28.0472 56.4998C28.0157 56.5001 27.9843 56.5001 27.9528 56.4998ZM26.7366 4.59666L16.68 14.6533L28 25.9733L39.32 14.6533L29.2634 4.59665C28.5656 3.89891 27.4344 3.89891 26.7366 4.59666ZM30.5267 28.5L41.8467 39.82L51.9034 29.7634C52.6011 29.0656 52.6011 27.9344 51.9033 27.2366L41.8467 17.18L30.5267 28.5ZM28 31.0267L16.68 42.3467L26.7366 52.4034C27.4344 53.1011 28.5656 53.1011 29.2634 52.4033L39.32 42.3467L28 31.0267ZM25.4733 28.5L14.1533 17.18L4.09665 27.2366C3.39891 27.9344 3.39891 29.0656 4.09666 29.7634L14.1533 39.82L25.4733 28.5Z" fill="#DAFF01"/>
</svg>
