<svg width="56" height="43" viewBox="0 0 56 43" fill="none" xmlns="http://www.w3.org/2000/svg">
<path d="M40.3681 18H54.1318C54.8737 18 55.2789 18.8652 54.804 19.4352L47.9222 27.6934C47.5723 28.1132 46.9276 28.1132 46.5778 27.6934L39.6959 19.4352C39.221 18.8652 39.6263 18 40.3681 18Z" fill="#DAFF01"/>
<path d="M1.86813 25H15.6318C16.3737 25 16.7789 24.1348 16.304 23.5648L9.42216 15.3066C9.07234 14.8868 8.42759 14.8868 8.07777 15.3066L1.19593 23.5648C0.721008 24.1348 1.12627 25 1.86813 25Z" fill="#DAFF01"/>
<path fill-rule="evenodd" clip-rule="evenodd" d="M28 4C22.5662 4 17.7119 6.47438 14.4994 10.3644C13.8839 11.1096 12.7809 11.2148 12.0357 10.5993C11.2905 9.98389 11.1853 8.88085 11.8007 8.13564C15.6497 3.47509 21.4781 0.5 28 0.5C38.2959 0.5 46.858 7.90776 48.6538 17.6838C48.6731 17.789 48.6916 17.8944 48.7093 18H45.1503C43.5297 10.0122 36.4652 4 28 4ZM10.8497 25C12.4702 32.9878 19.5348 39 28 39C33.4337 39 38.288 36.5256 41.5006 32.6356C42.116 31.8904 43.219 31.7852 43.9643 32.4007C44.7095 33.0161 44.8147 34.1191 44.1992 34.8644C40.3503 39.5249 34.5218 42.5 28 42.5C17.704 42.5 9.14189 35.0922 7.34617 25.3162C7.32686 25.211 7.30834 25.1056 7.2906 25H10.8497Z" fill="#DAFF01"/>
</svg>
